<?xml version="1.0" standalone="no"?>
<!DOCTYPE svg PUBLIC "-//W3C//DTD SVG 20010904//EN"
 "http://www.w3.org/TR/2001/REC-SVG-20010904/DTD/svg10.dtd">
<svg version="1.0" xmlns="http://www.w3.org/2000/svg"
 width="70.000000pt" height="70.000000pt" viewBox="0 0 70.000000 70.000000"
 preserveAspectRatio="xMidYMid meet">
<metadata>
Created by potrace 1.14, written by Peter Selinger 2001-2017
</metadata>
<g transform="translate(0.000000,70.000000) scale(0.100000,-0.100000)"
fill="#000000" stroke="none">
<path d="M286 665 c-49 -17 -102 -69 -117 -113 -20 -60 -7 -142 29 -193 23
-32 34 -60 38 -99 10 -91 21 -100 113 -100 88 0 111 14 111 66 0 39 19 105 35
124 31 36 55 93 55 131 0 81 -67 165 -151 189 -44 13 -66 12 -113 -5z m127
-24 c38 -15 83 -64 97 -106 17 -51 8 -100 -29 -164 -18 -30 -37 -79 -43 -110
-6 -31 -17 -63 -25 -71 -12 -13 -14 -3 -12 70 1 47 4 79 6 73 6 -18 28 -16 43
3 11 12 10 18 -3 31 -13 13 -19 14 -31 3 -13 -10 -16 -10 -16 3 0 9 -8 21 -17
26 -15 9 -11 10 18 11 19 0 40 -5 47 -12 9 -10 16 -8 30 6 16 16 16 18 -3 34
-11 10 -21 24 -23 32 -6 24 -25 30 -44 13 -16 -15 -18 -15 -18 0 0 8 -6 18
-12 21 -12 5 28 2 77 -6 14 -2 21 3 23 20 4 25 -23 41 -41 23 -6 -6 -25 -11
-41 -10 -17 0 -25 3 -18 6 6 2 12 13 12 24 0 17 3 18 21 8 17 -8 24 -8 35 3
12 12 12 17 0 33 -13 18 -17 18 -40 6 -14 -8 -27 -24 -27 -35 -1 -20 -1 -20
-6 -1 -9 39 -31 45 -70 19 -20 -13 -39 -24 -42 -24 -11 0 -34 -62 -38 -100 -3
-28 3 -46 27 -78 16 -23 35 -42 40 -42 6 0 10 -36 10 -86 0 -76 -2 -85 -15
-74 -8 7 -15 25 -15 40 0 43 -25 115 -53 152 -63 83 -36 200 59 252 33 17 100
21 137 7z m-63 -76 c0 -18 -4 -23 -15 -19 -10 4 -15 0 -15 -15 0 -14 -5 -19
-15 -15 -16 7 -19 -4 -7 -24 5 -7 16 -10 25 -6 13 5 16 2 11 -10 -3 -9 -15
-16 -26 -16 -10 0 -17 4 -13 9 9 15 -14 24 -30 11 -8 -6 -16 -7 -19 -2 -3 6 4
13 17 16 21 7 21 8 3 15 -14 5 -16 10 -8 15 7 4 10 11 7 16 -3 5 -1 11 4 14 5
4 12 2 16 -4 10 -16 25 -11 18 6 -5 13 -2 15 15 9 13 -4 22 -2 22 4 0 6 -5 11
-11 11 -5 0 -7 5 -4 10 10 16 25 1 25 -25z m90 31 c0 -3 -4 -8 -10 -11 -5 -3
-10 -1 -10 4 0 6 5 11 10 11 6 0 10 -2 10 -4z m30 -70 c0 -3 -4 -8 -10 -11 -5
-3 -10 -1 -10 4 0 6 5 11 10 11 6 0 10 -2 10 -4z m-194 -79 c4 -4 -2 -7 -14
-7 -11 0 -24 5 -27 10 -7 11 30 8 41 -3z m134 -2 c11 -13 8 -15 -14 -15 -16 0
-26 5 -26 15 0 8 6 15 14 15 7 0 19 -7 26 -15z m-79 -15 c10 -6 19 -18 18 -28
0 -14 -2 -14 -6 -2 -6 16 -23 30 -37 30 -4 0 -6 -6 -3 -14 7 -19 -25 -27 -41
-10 -14 16 -16 28 -2 19 5 -3 18 -1 27 4 22 13 21 13 44 1z m139 -10 c0 -5 -4
-10 -10 -10 -5 0 -10 5 -10 10 0 6 5 10 10 10 6 0 10 -4 10 -10z m-145 -39
c-8 -13 -35 -15 -35 -2 0 5 8 11 18 13 21 5 26 2 17 -11z m16 -34 c-8 -8 -11
-7 -11 4 0 9 3 19 7 23 4 4 9 2 11 -4 3 -7 -1 -17 -7 -23z m37 8 c-3 -13 -1
-26 3 -27 5 -2 4 -9 0 -17 -6 -9 -18 -12 -37 -7 -26 7 -27 9 -10 18 14 8 21 7
27 -3 7 -11 9 -9 7 6 -2 31 1 55 8 55 4 0 4 -11 2 -25z m62 -5 c0 -5 -4 -10
-10 -10 -5 0 -10 5 -10 10 0 6 5 10 10 10 6 0 10 -4 10 -10z m-58 -116 c-5
-25 -12 -32 -12 -11 0 25 -18 21 -22 -5 -4 -30 -28 -36 -28 -6 0 18 2 20 10 8
8 -13 10 -12 10 3 0 9 -5 17 -11 17 -5 0 -8 4 -5 8 3 5 18 8 33 7 22 -1 27 -6
25 -21z"/>
<path d="M275 130 c-9 -14 3 -30 23 -31 11 0 12 -3 5 -6 -7 -2 -13 -11 -13
-19 0 -12 13 -14 63 -12 46 2 61 7 59 17 -1 7 2 19 9 27 6 7 8 18 4 24 -8 13
-142 13 -150 0z m108 -37 c-13 -2 -33 -2 -45 0 -13 2 -3 4 22 4 25 0 35 -2 23
-4z"/>
<path d="M330 30 c0 -16 5 -21 23 -18 12 2 22 10 22 18 0 8 -10 16 -22 18 -18
3 -23 -2 -23 -18z"/>
</g>
</svg>
